HIERARCHY
ROOT Hips
{
  OFFSET 43.0842 91.1655 101.099
  CHANNELS 6 Xposition Yposition Zposition Zrotation Xrotation Yrotation
  JOINT LeftUpLeg
  {
    OFFSET 8.64259 1.95398 -2.38835
    CHANNELS 3 Zrotation Xrotation Yrotation
    JOINT LeftLeg
    {
      OFFSET 43.7702 0 0
      CHANNELS 3 Zrotation Xrotation Yrotation
      JOINT LeftFoot
      {
        OFFSET 40.6238 0 0
        CHANNELS 3 Zrotation Xrotation Yrotation
        JOINT LeftToeBase
        {
          OFFSET 12.7242 0 0
          CHANNELS 3 Zrotation Xrotation Yrotation
          End Site
          {
            OFFSET 0 0 0
          }
        }
      }
    }
  }
  JOINT RightUpLeg
  {
    OFFSET -8.2249 1.95398 -2.59336
    CHANNELS 3 Zrotation Xrotation Yrotation
    JOINT RightLeg
    {
      OFFSET 43.5653 0 0
      CHANNELS 3 Zrotation Xrotation Yrotation
      JOINT RightFoot
      {
        OFFSET 40.6238 0 0
        CHANNELS 3 Zrotation Xrotation Yrotation
        JOINT RightToeBase
        {
          OFFSET 12.7242 0 0
          CHANNELS 3 Zrotation Xrotation Yrotation
          End Site
          {
            OFFSET 0 0 0
          }
        }
      }
    }
  }
  JOINT Spine
  {
    OFFSET 0.165834 0.87714 6.61349
    CHANNELS 3 Zrotation Xrotation Yrotation
    JOINT Spine1
    {
      OFFSET 7.38963 1.71661e-005 0
      CHANNELS 3 Zrotation Xrotation Yrotation
      JOINT Spine2
      {
        OFFSET 11.9445 1.14441e-005 0
        CHANNELS 3 Zrotation Xrotation Yrotation
        JOINT Spine3
        {
          OFFSET 14.7254 4.19617e-005 0
          CHANNELS 3 Zrotation Xrotation Yrotation
          JOINT Spine4
          {
            OFFSET 10.9679 0 0
            CHANNELS 3 Zrotation Xrotation Yrotation
            JOINT RightShoulder
            {
              OFFSET 2.46616 -1.6653 3.69651
              CHANNELS 3 Zrotation Xrotation Yrotation
              JOINT RightArm
              {
                OFFSET 13.0012 0 0
                CHANNELS 3 Zrotation Xrotation Yrotation
                JOINT RightForeArm
                {
                  OFFSET 28.7848 1.52588e-005 0
                  CHANNELS 3 Zrotation Xrotation Yrotation
                  JOINT RightHand
                  {
                    OFFSET 26.5688 1.52588e-005 0
                    CHANNELS 3 Zrotation Xrotation Yrotation
                    End Site
                    {
                      OFFSET 0 0 0
                    }
                  }
                }
              }
            }
            JOINT LeftShoulder
            {
              OFFSET 2.38034 -1.29275 -3.7523
              CHANNELS 3 Zrotation Xrotation Yrotation
              JOINT LeftArm
              {
                OFFSET 16.3182 6.10351e-005 0
                CHANNELS 3 Zrotation Xrotation Yrotation
                JOINT LeftForeArm
                {
                  OFFSET 27.0901 0 0
                  CHANNELS 3 Zrotation Xrotation Yrotation
                  JOINT LeftHand
                  {
                    OFFSET 24.5451 1.52588e-005 0
                    CHANNELS 3 Zrotation Xrotation Yrotation
                    End Site
                    {
                      OFFSET 0 0 0
                    }
                  }
                }
              }
            }
            JOINT Neck
            {
              OFFSET 5.0226 -0.0266342 0
              CHANNELS 3 Zrotation Xrotation Yrotation
              JOINT Head
              {
                OFFSET 6.69364 2.86102e-005 0
                CHANNELS 3 Zrotation Xrotation Yrotation
                End Site
                {
                  OFFSET 0 0 0
                }
              }
            }
          }
        }
      }
    }
  }
}
MOTION
Frames:	13
Frame Time:	0.0333333
-35.7007 88.2639 -9.02299 93.358 9.20391 92.0021 -170.195 17.6171 105.716 -44.9094 27.7647 0.671829 63.7774 5.51824 15.0896 38.2188 8.34582 7.74512 171.973 24.2699 81.1179 -38.4 -10.696 0.77023 61.3577 1.90982 -8.25133 36.081 -3.50177 -1.95163 -0.178111 7.71414 -89.6072 11.4455 -0.171125 0.799861 -0.22566 -0.135746 0.80661 -22.7593 -0.403576 0.711466 -2.74661 -0.403611 0.711455 88.2226 -59.0676 -101.346 4.05594 -8.70972 -19.0106 -23.9814 18.6015 -38.0683 -6.52719 -0.813381 -2.50084 -98.1606 -51.8813 67.3075 -7.19103 11.0834 -69.2483 13.6937 11.3764 -102.577 13.7063 1.47617 0.239203 -26.2722 -24.2801 -13.0998 -0.0705921 -26.4941 -20.7777 
-35.7228 88.251 -9.64605 93.4399 8.62451 92.145 -169.868 16.6899 105.306 -43.4522 24.5952 0.295687 64.0876 6.17505 16.2311 38.105 9.19347 5.54174 172.363 24.4622 81.0141 -38.8673 -9.2909 0.198041 60.9725 1.48433 -5.3706 36.068 -3.19598 -3.0128 -0.169265 7.71398 -89.6432 11.4459 -0.170094 0.727969 -0.22521 -0.137876 0.734735 -22.7591 -0.381007 0.643199 -2.74646 -0.381029 0.64319 88.1732 -59.7426 -101.265 3.20359 -8.78907 -19.2707 -23.8063 18.005 -38.7032 -7.23289 -0.98268 -2.46522 -97.9865 -51.4699 67.4211 -8.23313 10.8593 -68.9465 12.787 12.1632 -102.87 13.6747 1.44687 0.568659 -26.2755 -23.7691 -13.9383 1.43314 -26.2179 -19.2066 
-35.8102 88.121 -10.1927 93.2059 8.21718 92.1126 -170.07 16.1813 104.885 -42.8582 25.1296 0.21748 63.9938 5.49091 17.6875 39.1718 11.359 3.62726 172.373 24.7427 80.7705 -38.3605 -9.65403 0.193191 60.8354 1.45768 -6.20569 36.1881 -3.2702 -2.99605 -0.208718 7.63536 -89.6601 11.6035 -0.255948 0.703909 -0.0676388 -0.224693 0.714479 -22.6018 -0.455649 0.594455 -2.58918 -0.455666 0.594449 87.9331 -60.7453 -101.371 2.11288 -8.83763 -19.2205 -23.4772 17.1245 -38.9547 -7.39912 -1.04021 -2.72065 -97.7845 -51.592 67.7513 -7.70595 11.4601 -67.9509 13.5287 11.1508 -103.456 13.6103 1.43563 0.590244 -25.7061 -22.5094 -13.1404 2.6374 -24.9295 -17.9691 
-35.902 88.0202 -10.7436 93.2169 7.80598 91.8074 -169.724 16.1776 104.474 -43.2878 26.5055 -0.141736 63.9463 5.45462 18.3797 39.2523 11.4795 3.57552 172.723 25.0788 80.2974 -38.7158 -8.38925 -0.239217 60.8806 1.06312 -4.55398 36.0541 -3.14826 -3.1529 -0.0844417 7.68507 -89.7194 11.5035 -0.036776 0.562712 -0.167606 -0.0119764 0.563773 -22.7019 -0.204184 0.525652 -2.68922 -0.204181 0.525638 88.6723 -60.0626 -100.514 3.33059 -6.99703 -18.7553 -22.9982 17.6848 -39.9211 -5.68638 -0.736949 -4.05828 -98.7089 -51.9163 66.5362 -6.63515 10.8867 -68.882 13.101 11.3388 -102.507 14.435 1.59809 0.0136512 -24.0501 -21.4625 -12.7527 3.67371 -23.6455 -15.9067 
-35.9375 88.0333 -11.2678 93.3792 7.46605 91.4741 -169.237 15.7668 104.03 -42.9529 25.3934 -0.595326 64.2452 6.00133 18.1243 39.5113 12.0648 2.88787 172.9 25.0969 79.794 -38.6042 -7.78654 -0.541288 60.5325 1.17076 -3.76055 35.9027 -3.07928 -3.08618 -0.0887026 7.66892 -89.6728 11.5356 -0.0233196 0.6543 -0.135482 0.0054897 0.654682 -22.6694 -0.218877 0.617043 -2.65677 -0.218894 0.617036 88.3715 -60.6715 -100.794 3.67207 -7.27782 -18.2832 -23.0492 17.7528 -39.9984 -6.04895 -0.814012 -3.98131 -97.763 -51.4848 67.7472 -7.01265 10.7871 -68.5609 12.9972 11.6711 -102.442 14.49 1.60182 0.076525 -23.6039 -19.6274 -11.5695 4.49273 -21.7188 -14.9588 
-35.9773 87.9943 -11.7915 93.2589 7.26578 91.1823 -169.093 15.6138 103.366 -42.8319 24.318 -0.857849 64.5532 6.42994 17.8484 39.7945 12.4095 2.88956 173.027 25.2559 79.2481 -38.364 -8.18226 -0.756696 60.1921 1.37714 -3.76269 36.145 -3.17307 -3.25205 -0.0558115 7.64544 -89.6546 11.5824 0.0507997 0.683101 -0.0887691 0.0807466 0.680208 -22.6225 -0.156881 0.666787 -2.60989 -0.156865 0.666788 88.3194 -60.4951 -100.902 4.44074 -7.95615 -17.5267 -23.2494 18.1736 -40.3513 -6.61072 -0.882194 -3.15582 -97.8148 -51.5646 67.6989 -6.60757 10.2993 -68.3623 13.3445 11.6356 -102.185 15.087 1.68748 0.0878255 -22.9536 -18.2685 -10.2325 4.63399 -20.1866 -14.456 
-35.9211 87.9282 -12.2663 93.3734 7.48096 91.044 -169.081 15.5359 103.022 -43.2205 25.3701 -0.913582 64.5112 6.56065 18.6986 39.6867 12.2787 2.88827 173.133 25.0545 78.8279 -38.4767 -10.1494 -0.984472 60.0071 2.07359 -5.30778 36.0337 -3.01522 -3.57918 -0.0616724 7.65722 -89.6745 11.5589 0.029678 0.645603 -0.112214 0.0581152 0.643661 -22.6461 -0.165684 0.624686 -2.6335 -0.165693 0.624685 88.2743 -60.3559 -100.993 4.78141 -7.60372 -16.9357 -23.3388 16.4254 -40.6846 -7.53865 -1.09328 -3.01768 -98.0217 -52.0615 67.5652 -6.17971 9.97734 -68.4815 12.4402 11.3348 -101.936 14.4615 1.56829 0.510423 -22.6055 -17.8255 -8.73555 4.33238 -19.6129 -14.7724 
-35.922 87.8313 -12.6608 93.3936 7.73208 91.0751 -169.291 15.831 102.819 -43.9869 25.7289 -0.869108 64.5704 6.47654 19.2483 39.8482 12.5862 2.58956 173.079 24.8383 78.6165 -38.1939 -9.51352 -1.02658 60.1286 1.71069 -4.90747 35.9718 -2.98809 -3.54708 -0.0449762 7.67391 -89.6982 11.5255 0.0517444 0.596003 -0.145554 0.0779031 0.593147 -22.6796 -0.129766 0.584009 -2.667 -0.12977 0.584004 88.4692 -60.2181 -100.758 5.05481 -7.82109 -16.7622 -23.6342 16.2545 -40.1124 -7.03869 -1.02127 -3.6929 -97.9997 -52.0566 67.5951 -6.47454 9.82405 -68.5166 12.2786 11.4213 -101.98 14.9281 1.63805 0.503853 -22.3395 -17.4272 -7.90912 4.01487 -19.1158 -14.8777 
-35.9093 87.7537 -12.9966 93.3496 7.95726 91.0918 -169.436 16.0002 102.61 -44.4664 26.0635 -0.822899 64.743 6.79672 19.3789 39.7913 12.3928 2.9241 172.989 24.7005 78.382 -37.9001 -11.0568 -0.980006 59.8688 2.55139 -7.07332 36.409 -3.68654 -1.95426 -0.0289582 7.64922 -89.6868 11.5747 0.0890525 0.614931 -0.0963357 0.116057 0.610412 -22.6303 -0.0998708 0.61327 -2.61769 -0.0998806 0.613269 88.5012 -60.7757 -100.596 4.37925 -8.26557 -16.4068 -22.849 17.5651 -39.988 -6.19374 -0.84344 -3.9317 -97.7423 -51.8132 67.8839 -6.92556 10.1153 -68.4236 12.4485 11.1965 -102.049 14.7677 1.60707 0.613519 -23.247 -17.1135 -8.48647 4.60702 -18.9376 -14.1741 
-35.877 87.7331 -13.2471 93.2623 8.09729 91.1382 -169.516 16.1729 102.455 -44.6977 25.9513 -0.812652 64.7539 6.74012 19.6166 40.0042 12.7122 2.76003 173.035 24.628 78.2632 -37.7588 -11.1375 -1.02928 59.8065 2.47988 -6.7916 36.6005 -3.61336 -2.61589 -0.0258998 7.67196 -89.7222 11.5294 0.0784945 0.545506 -0.141613 0.102403 0.541517 -22.6759 -0.0890885 0.543876 -2.66321 -0.0891069 0.543872 88.5855 -59.8035 -100.688 5.24616 -8.15063 -16.2376 -23.2596 16.6362 -40.1905 -6.73099 -0.717569 -0.517795 -98.0569 -52.0845 67.5224 -7.41331 9.39434 -68.3492 12.1476 11.8718 -102.447 14.4063 1.52756 0.986331 -22.9377 -17.157 -7.83704 4.52655 -18.9344 -14.5777 
-35.773 87.7244 -13.4456 93.1751 8.13825 91.2476 -169.528 16.2827 102.434 -44.9359 25.7969 -0.793365 64.8258 6.91356 19.4605 40.0152 12.6501 2.96511 173.214 24.4554 78.3243 -37.5434 -11.1304 -1.1639 59.8627 2.5015 -7.02572 36.4294 -3.45498 -2.83339 0.00348757 7.65981 -89.7166 11.5536 0.139672 0.550358 -0.117465 0.163744 0.543677 -22.6517 -0.0322063 0.566894 -2.63905 -0.0322152 0.566884 88.3934 -60.3877 -100.825 4.8728 -7.88334 -15.9083 -23.4244 16.274 -40.5839 -7.07553 -0.958265 -2.66484 -97.8579 -51.8812 67.7405 -7.20853 9.84033 -68.2843 12.2703 11.5226 -102.479 14.4491 1.57058 0.449425 -23.3671 -17.1149 -8.45038 5.14092 -19.0029 -14.115 
-35.6719 87.6643 -13.6822 93.1083 8.24579 91.0909 -169.531 16.1732 102.139 -44.9238 26.2381 -0.852678 64.8498 7.15036 20.01 39.9513 12.5369 3.06084 173.119 24.6366 77.9808 -37.7588 -10.4111 -1.16405 59.9031 2.43286 -6.45892 36.5269 -3.62277 -2.42886 0.00327889 7.64807 -89.6827 11.5769 0.154917 0.616374 -0.0941854 0.18189 0.608958 -22.6282 -0.0374899 0.634437 -2.61553 -0.0374835 0.63444 88.3342 -60.81 -100.815 4.51706 -7.65326 -15.6878 -22.9604 16.51 -40.9613 -7.29346 -1.00324 -2.55119 -97.7434 -51.6784 67.8384 -7.11081 10.2324 -68.1369 12.0005 11.231 -102.439 14.2177 1.53592 0.454716 -23.8392 -17.2006 -9.02483 5.62514 -19.2136 -13.9746 
-35.5452 87.6003 -13.8503 92.9296 8.26223 91.1168 -169.421 16.3147 102.125 -45.0394 26.607 -0.977675 64.9069 7.22904 20.4457 40.0821 12.7765 2.84234 172.982 24.7752 77.7847 -37.8248 -10.6361 -1.10066 59.8521 2.3245 -6.1236 36.9611 -3.77901 -2.7659 0.00741207 7.64116 -89.6777 11.5907 0.166087 0.625152 -0.0804208 0.193471 0.617232 -22.6144 -0.0294843 0.646165 -2.60171 -0.029467 0.646167 88.748 -60.5172 -100.316 4.88922 -7.84743 -15.7342 -23.1426 16.5066 -41.1742 -7.943 -1.14723 -2.33061 -97.6764 -51.6233 67.9168 -6.98167 10.4072 -68.3144 11.4583 11.5436 -102.206 14.4786 1.54875 0.836712 -23.7495 -17.3142 -9.67007 5.83853 -19.3303 -13.3405 
